HIERARCHY
ROOT SpineBase
{
  OFFSET 0.000000 0.000000 0.000000
  CHANNELS 6 Xposition Yposition Zposition Zrotation Xrotation Yrotation
  JOINT SpineMid
  {
    OFFSET 0.000000 29.708545 0.000000
    CHANNELS 3 Zrotation Xrotation Yrotation
    JOINT SpineShoulder
    {
      OFFSET 0.099730 22.109332 -0.697359
      CHANNELS 3 Zrotation Xrotation Yrotation
      JOINT Neck
      {
        OFFSET 0.070898 7.330608 -0.546632
        CHANNELS 3 Zrotation Xrotation Yrotation
        JOINT Head
        {
          OFFSET -4.351807 13.719085 0.016155
          CHANNELS 3 Zrotation Xrotation Yrotation
          End Site
          {
            OFFSET 0 0 0
          }
        }
      }
      JOINT ShoulderLeft
      {
        OFFSET -15.506926 -4.205655 6.062859
        CHANNELS 3 Zrotation Xrotation Yrotation
        JOINT ElbowLeft
        {
          OFFSET -0.935563 -28.311464 5.705513
          CHANNELS 3 Zrotation Xrotation Yrotation
          JOINT WristLeft
          {
            OFFSET 0.071076 -18.741689 -13.728868
            CHANNELS 3 Zrotation Xrotation Yrotation
            JOINT HandLeft
            {
              OFFSET 3.532780 -1.946833 0.661735
              CHANNELS 3 Zrotation Xrotation Yrotation
              JOINT HandTipLeft
              {
                OFFSET -0.083189 -6.096885 -0.869091
                CHANNELS 3 Zrotation Xrotation Yrotation
                End Site
                {
                  OFFSET 0 0 0
                }
              }
              JOINT ThumbLeft
              {
                OFFSET -1.833654 -0.588585 1.790532
                CHANNELS 3 Zrotation Xrotation Yrotation
                End Site
                {
                  OFFSET 0 0 0
                }
              }
            }
          }
        }
      }
      JOINT ShoulderRight
      {
        OFFSET 13.997702 -2.995363 -7.467919
        CHANNELS 3 Zrotation Xrotation Yrotation
        JOINT ElbowRight
        {
          OFFSET 6.662012 -25.491593 0.079158
          CHANNELS 3 Zrotation Xrotation Yrotation
          JOINT WristRight
          {
            OFFSET -1.769650 -22.179370 -4.946043
            CHANNELS 3 Zrotation Xrotation Yrotation
            JOINT HandRight
            {
              OFFSET -1.661024 -2.416115 0.266233
              CHANNELS 3 Zrotation Xrotation Yrotation
              JOINT HandTipRight
              {
                OFFSET -1.472950 -7.286582 -0.187016
                CHANNELS 3 Zrotation Xrotation Yrotation
                End Site
                {
                  OFFSET 0 0 0
                }
              }
              JOINT ThumbRight
              {
                OFFSET -3.373986 0.434516 -1.833230
                CHANNELS 3 Zrotation Xrotation Yrotation
                End Site
                {
                  OFFSET 0 0 0
                }
              }
            }
          }
        }
      }
    }
  }
  JOINT HipLeft
  {
    OFFSET -6.401707 0.310872 -1.105671
    CHANNELS 3 Zrotation Xrotation Yrotation
    JOINT KneeLeft
    {
      OFFSET 3.861089 -29.965297 7.398523
      CHANNELS 3 Zrotation Xrotation Yrotation
      JOINT AnkleLeft
      {
        OFFSET 6.309228 -31.257597 4.370495
        CHANNELS 3 Zrotation Xrotation Yrotation
        JOINT FootLeft
        {
          OFFSET -3.875772 -3.705216 -12.453038
          CHANNELS 3 Zrotation Xrotation Yrotation
          End Site
          {
            OFFSET 0 0 0
          }
        }
      }
    }
  }
  JOINT HipRight
  {
    OFFSET 7.128468 1.427351 -5.635829
    CHANNELS 3 Zrotation Xrotation Yrotation
    JOINT KneeRight
    {
      OFFSET 6.221474 -27.662528 3.931004
      CHANNELS 3 Zrotation Xrotation Yrotation
      JOINT AnkleRight
      {
        OFFSET 1.809376 -32.746935 7.429105
        CHANNELS 3 Zrotation Xrotation Yrotation
        JOINT FootRight
        {
          OFFSET -3.892821 -3.687698 -12.474619
          CHANNELS 3 Zrotation Xrotation Yrotation
          End Site
          {
            OFFSET 0 0 0
          }
        }
      }
    }
  }
}
MOTION
Frames: 10
Frame Time: 0.033333
-34.750192 69.643331 335.034293 -0.000000 0.000000 18.511518 0.000000 0.000000 -18.511518 -0.000000 0.000000 0.000000 -0.000000 0.000000 0.000000 0.000000 0.000000 0.000000 -0.000000 0.000000 0.000000 -0.000000 0.000000 0.000000 -0.000000 0.000000 0.000000 -0.000000 0.000000 0.000000 0.000000 0.000000 0.000000 0.000000 0.000000 0.000000 -0.000000 0.000000 0.000000 -0.000000 0.000000 0.000000 -0.000000 0.000000 0.000000 -0.000000 0.000000 0.000000 0.000000 0.000000 0.000000 0.000000 0.000000 0.000000 0.000000 0.000000 -18.511518 -0.000000 0.000000 0.000000 -0.000000 0.000000 0.000000 0.000000 0.000000 0.000000 0.000000 0.000000 -18.511518 -0.000000 0.000000 0.000000 -0.000000 0.000000 0.000000 0.000000 0.000000 0.000000
-34.748031 69.646657 335.058512 -0.024671 -0.012013 18.499410 0.027208 0.003565 -18.499413 -0.000000 0.000000 0.000000 -0.000000 0.000000 0.000000 0.000000 0.000000 0.000000 -0.000000 0.000000 0.000000 -0.000000 0.000000 0.000000 0.601145 -2.585988 -4.397703 3.004273 9.403851 3.337071 0.000000 0.000000 0.000000 0.000000 0.000000 0.000000 -0.000000 0.000000 0.000000 -0.000000 0.000000 0.000000 0.048797 0.807586 -0.550758 -0.041037 -0.808017 0.550124 0.000000 0.000000 0.000000 0.000000 0.000000 0.000000 0.027208 0.003565 -18.499413 -0.000000 0.000000 0.000000 1.095011 -1.961956 -1.725605 0.000000 0.000000 0.000000 0.027208 0.003565 -18.499413 -0.000000 0.000000 0.000000 0.770914 -2.231758 -0.255282 0.000000 0.000000 0.000000
-34.746682 69.648211 335.079186 -0.045212 -0.027220 18.495230 0.051512 0.011472 -18.495246 -0.000000 0.000000 0.000000 -0.000000 0.000000 0.000000 0.000000 0.000000 0.000000 -0.000000 0.000000 0.000000 -0.000000 0.000000 0.000000 1.108942 -4.664653 -7.790126 5.349072 18.623857 5.069236 0.000000 0.000000 0.000000 0.000000 0.000000 0.000000 -0.000000 0.000000 0.000000 -0.000000 0.000000 0.000000 0.002475 1.421266 -0.978224 0.021794 -1.421101 0.978464 0.000000 0.000000 0.000000 0.000000 0.000000 0.000000 0.051512 0.011472 -18.495246 -0.000000 0.000000 0.000000 1.944386 -3.590764 -3.098091 0.000000 0.000000 0.000000 0.051512 0.011472 -18.495246 -0.000000 0.000000 0.000000 1.388550 -4.048167 -0.430094 0.000000 0.000000 0.000000
-34.746145 69.647992 335.096312 -0.061624 -0.045620 18.498986 0.072914 0.023710 -18.499026 -0.000000 0.000000 0.000000 -0.000000 0.000000 0.000000 0.000000 0.000000 0.000000 -0.000000 0.000000 0.000000 -0.000000 0.000000 0.000000 1.620262 -6.190936 -10.132873 7.301503 26.783052 5.433124 0.000000 0.000000 0.000000 0.000000 0.000000 0.000000 -0.000000 0.000000 0.000000 -0.000000 0.000000 0.000000 -0.131273 1.896764 -1.317701 0.325475 -0.901868 1.122320 0.000000 0.000000 0.000000 0.000000 0.000000 0.000000 0.072914 0.023710 -18.499026 -0.000000 0.000000 0.000000 2.524849 -4.768836 -4.049544 0.000000 0.000000 0.000000 0.072914 0.023710 -18.499026 -0.000000 0.000000 0.000000 1.822668 -5.343795 -0.528243 0.000000 0.000000 0.000000
-34.746422 69.646001 335.109893 -0.073908 -0.067211 18.510681 0.091422 0.040270 -18.510757 -0.000000 0.000000 0.000000 -0.000000 0.000000 0.000000 0.000000 0.000000 0.000000 -0.300171 0.832963 -0.085955 0.301452 -0.832500 0.090327 2.207601 -7.152660 -11.425505 9.034901 33.162487 4.718918 0.000000 0.000000 0.000000 0.000000 0.000000 0.000000 -0.000000 0.000000 0.000000 -0.000000 0.000000 0.000000 -0.353052 2.268635 -1.591750 0.805078 -0.943185 1.343298 0.000000 0.000000 0.000000 0.000000 0.000000 0.000000 0.091422 0.040270 -18.510757 -0.000000 0.000000 0.000000 2.823960 -5.408625 -4.532341 0.000000 0.000000 0.000000 -0.727123 -0.169244 -18.715830 0.708055 0.461064 0.201303 2.050421 -6.041163 -0.555085 0.000000 0.000000 0.000000
-34.747511 69.642238 335.119927 -0.082064 -0.091994 18.530319 0.107046 0.061144 -18.530442 -0.000000 0.000000 0.000000 -0.000000 0.000000 0.000000 0.000000 0.000000 0.000000 -0.318892 0.926140 -0.092435 0.320428 -0.925609 0.097601 2.913016 -7.547384 -11.688177 10.575599 37.317552 3.246720 0.000000 0.000000 0.000000 0.000000 0.000000 0.000000 -0.000000 0.000000 0.000000 -0.000000 0.000000 0.000000 -0.671111 2.558684 -1.815298 1.476059 -0.908210 1.524285 0.000000 0.000000 0.000000 0.000000 0.000000 0.000000 0.107046 0.061144 -18.530442 -0.000000 0.000000 0.000000 2.836465 -5.462335 -4.521911 0.000000 0.000000 0.000000 -0.840481 -0.183350 -18.768173 1.438191 1.050435 0.393736 1.419347 -6.613799 -0.669775 0.000000 0.000000 0.000000
-34.741739 69.639911 335.121803 -0.082963 -0.113208 18.555850 0.114676 0.080921 -18.556013 -0.000000 0.000000 0.000000 -0.000000 0.000000 0.000000 0.000000 0.000000 0.000000 -0.302639 0.988444 -0.091194 0.429725 0.786439 0.010248 7.185749 -9.311794 -9.149112 3.415461 33.638638 3.743432 0.000000 0.000000 0.000000 0.000000 0.000000 0.000000 -0.000000 0.000000 0.000000 -0.000000 0.000000 0.000000 -1.616612 3.057625 -2.222245 3.071204 -0.811763 1.888293 0.000000 0.000000 0.000000 0.000000 0.000000 0.000000 0.114676 0.080921 -18.556013 -0.000000 0.000000 0.000000 2.352749 -4.497731 -3.671350 0.000000 0.000000 0.000000 -0.982871 -0.206569 -18.832234 1.648899 1.237511 0.452247 0.965114 -5.653599 -0.553418 0.000000 0.000000 0.000000
-34.738138 69.635588 335.122891 -0.086278 -0.141931 18.547624 0.126944 0.107114 -18.547849 -0.000000 0.000000 0.000000 -0.000000 0.000000 0.000000 0.000000 0.000000 0.000000 -0.214282 1.068125 -0.076623 0.284810 -0.006140 0.033937 3.647616 -5.963099 -6.854163 14.028157 37.378253 -2.769807 0.000000 0.000000 0.000000 0.000000 0.000000 0.000000 -0.000000 0.000000 0.000000 -0.000000 0.000000 0.000000 -2.451856 2.762214 -2.085048 4.746120 -0.059834 1.685262 0.000000 0.000000 0.000000 0.000000 0.000000 0.000000 0.126944 0.107114 -18.547849 -0.000000 0.000000 0.000000 1.565615 -2.973991 -2.348182 0.000000 0.000000 0.000000 -1.169271 -0.234850 -18.874549 1.914484 1.480375 0.525309 -0.307453 -1.823233 -0.783630 0.000000 0.000000 0.000000
-34.748473 69.624550 335.123874 -0.097215 -0.173333 18.571776 0.147358 0.133344 -18.572095 -0.000000 0.000000 0.000000 -0.000000 0.000000 0.000000 0.000000 0.000000 0.000000 -0.107070 1.140899 -0.058329 0.298638 -3.342284 -0.080088 0.723423 -0.624775 -4.574726 22.127275 31.593326 -6.107011 0.000000 0.000000 0.000000 0.000000 0.000000 0.000000 -0.000000 0.000000 0.000000 -0.000000 0.000000 0.000000 -2.604697 3.472514 -2.564154 4.931811 -0.722389 2.230889 0.000000 0.000000 0.000000 0.000000 0.000000 0.000000 0.147358 0.133344 -18.572095 -0.000000 0.000000 0.000000 -0.634433 0.695547 1.372579 0.000000 0.000000 0.000000 -1.186505 -0.227892 -18.909538 1.953129 1.558159 0.539826 -0.815589 -0.776420 -0.233191 0.000000 0.000000 0.000000
-34.774298 69.603473 335.131705 -0.112465 -0.222557 18.627977 0.177663 0.174973 -18.628466 -0.000000 0.000000 0.000000 -0.000000 0.000000 0.000000 0.000000 0.000000 0.000000 0.281356 1.364928 0.008263 0.147542 -9.433075 -0.337085 2.873719 4.757648 -4.583831 15.885348 26.801924 -3.591309 0.000000 0.000000 0.000000 0.000000 0.000000 0.000000 -0.000000 0.000000 0.000000 -0.000000 0.000000 0.000000 -5.275211 2.950970 -2.405178 8.053955 -0.096805 2.157241 0.000000 0.000000 0.000000 0.000000 0.000000 0.000000 0.177663 0.174973 -18.628466 -0.000000 0.000000 0.000000 -1.649213 2.325915 2.901177 0.000000 0.000000 0.000000 -0.974582 -0.139586 -18.919147 1.705668 1.385514 0.475432 -1.179181 -0.233830 0.818094 0.000000 0.000000 0.000000
